<svg version="1.1" preserveAspectRatio="none" xmlns="http://www.w3.org/2000/svg" width="500" height="500" viewBox="0 0 500 500"><rect width="100%" height="100%" fill="#1C1C1C" fill-opacity="1"/><svg viewBox="164.3868 261.4034 381.6256 340.1966" width="333" height="296.84976007898837" x="83.5px" y="101.5751px" xmlns="http://www.w3.org/2000/svg" xmlns:xlink="http://www.w3.org/1999/xlink" preserveAspectRatio="none"><defs></defs><style>.companyName {fill:#EDEDED;fill-opacity:1;}.icon1 {fill:#EDEDED;fill-opacity:1;}.icon2 {fill:#F35F40;fill-opacity:1;}.icon3 {fill:#B2B2B1;fill-opacity:1;}.icon3-str {stroke:#B2B2B1;stroke-opacity:1;}</style><g opacity="1" transform="rotate(0 259.7932 261.4034)">
<svg width="190.8128" height="220.1966" x="259.7932" y="261.4034" version="1.1" preserveAspectRatio="none" viewBox="0.9279999732971191 0.6859999895095825 3.1430001258850098 3.627000331878662">
  <g transform="matrix(1 0 0 1 0 0)" class="icon1"><g><path d="M4.07,1.591L2.498,0.686l-1.57,0.907L0.93,3.407l1.571,0.906l1.57-0.908L4.07,1.591z M3.204,2.906   L2.5,3.312L1.795,2.906L2.51,2.093H1.795L2.5,1.686l0.384,0.223l0.997-0.211L2.252,2.906H3.204z"></path></g></g>
</svg>
</g><g opacity="1" transform="rotate(0 164.3868 521.6)">
<svg width="381.6256" height="80" x="164.3868" y="521.6" version="1.1" preserveAspectRatio="none" viewBox="0.84 -34.68 166.95999999999998 35">
  <g transform="matrix(1 0 0 1 0 0)" class="companyName"><path id="id-D6z1nYkh8" d="M9.68 0.32Q5 0.32 2.92-2Q0.84-4.32 0.84-9.48L0.84-9.48L0.84-12.84L7.60-12.84L7.60-8.56Q7.60-6 9.24-6L9.24-6Q10.16-6 10.52-6.54Q10.88-7.08 10.88-8.36L10.88-8.36Q10.88-10.04 10.48-11.14Q10.08-12.24 9.46-12.98Q8.84-13.72 7.24-15.28L7.24-15.28L4.28-18.24Q0.84-21.60 0.84-25.68L0.84-25.68Q0.84-30.08 2.86-32.38Q4.88-34.68 8.76-34.68L8.76-34.68Q13.40-34.68 15.44-32.22Q17.48-29.76 17.48-24.52L17.48-24.52L10.48-24.52L10.44-26.88Q10.44-27.56 10.06-27.96Q9.68-28.36 9-28.36L9-28.36Q8.20-28.36 7.80-27.92Q7.40-27.48 7.40-26.72L7.40-26.72Q7.40-25.04 9.32-23.24L9.32-23.24L13.32-19.40Q14.72-18.04 15.64-16.82Q16.56-15.60 17.12-13.94Q17.68-12.28 17.68-10L17.68-10Q17.68-4.92 15.82-2.30Q13.96 0.32 9.68 0.32L9.68 0.32Z M29.60 0L22.76 0L22.76-34.36L29.60-34.36L29.60-22.08L32.84-22.08L32.84-34.36L39.68-34.36L39.68 0L32.84 0L32.84-15.60L29.60-15.60L29.60 0Z M53.72 0.32Q49.56 0.32 47.40-2.22Q45.24-4.76 45.24-9.36L45.24-9.36L45.24-25.72Q45.24-30.16 47.40-32.42Q49.56-34.68 53.72-34.68L53.72-34.68Q57.88-34.68 60.04-32.42Q62.20-30.16 62.20-25.72L62.20-25.72L62.20-9.36Q62.20-4.72 60.04-2.20Q57.88 0.32 53.72 0.32L53.72 0.32ZM53.72-6Q54.64-6 54.96-6.80Q55.28-7.60 55.28-9.04L55.28-9.04L55.28-25.84Q55.28-26.96 54.98-27.66Q54.68-28.36 53.76-28.36L53.76-28.36Q52.04-28.36 52.04-25.76L52.04-25.76L52.04-9Q52.04-7.52 52.40-6.76Q52.76-6 53.72-6L53.72-6Z M67.76 0L67.76-34.36L76.84-34.36Q80.96-34.36 82.72-31.70Q84.48-29.04 84.48-23.92L84.48-23.92Q84.48-18.80 82.92-16.20Q81.36-13.60 77.32-13.60L77.32-13.60L74.52-13.60L74.52 0L67.76 0ZM74.52-19.80L74.92-19.80Q76.16-19.80 76.74-20.26Q77.32-20.72 77.50-21.58Q77.68-22.44 77.68-24.04L77.68-24.04Q77.68-26.20 77.20-27.16Q76.72-28.12 75.28-28.12L75.28-28.12L74.52-28.12L74.52-19.80Z M103.32 0L88.56 0L88.56-6.24L96.40-28.04L89.32-28.04L89.32-34.36L103.68-34.36L103.68-28.36L95.64-6.32L103.32-6.32L103.32 0Z M116.84 0.32Q112.68 0.32 110.52-2.22Q108.36-4.76 108.36-9.36L108.36-9.36L108.36-25.72Q108.36-30.16 110.52-32.42Q112.68-34.68 116.84-34.68L116.84-34.68Q121.00-34.68 123.16-32.42Q125.32-30.16 125.32-25.72L125.32-25.72L125.32-9.36Q125.32-4.72 123.16-2.20Q121.00 0.32 116.84 0.32L116.84 0.32ZM116.84-6Q117.76-6 118.08-6.80Q118.40-7.60 118.40-9.04L118.40-9.04L118.40-25.84Q118.40-26.96 118.10-27.66Q117.80-28.36 116.88-28.36L116.88-28.36Q115.16-28.36 115.16-25.76L115.16-25.76L115.16-9Q115.16-7.52 115.52-6.76Q115.88-6 116.84-6L116.84-6Z M137.60 0L130.88 0L130.88-34.36L137.96-34.36L141.12-17.92L141.12-34.36L147.76-34.36L147.76 0L141.04 0L137.60-17.20L137.60 0Z M167.80 0L153.60 0L153.60-34.36L167.36-34.36L167.36-27.72L160.60-27.72L160.60-21.04L167.08-21.04L167.08-14.56L160.60-14.56L160.60-6.68L167.80-6.68L167.80 0Z"/></g>
</svg>
</g></svg></svg>